<svg id="elbVZvPGz7N1" xmlns="http://www.w3.org/2000/svg" xmlns:xlink="http://www.w3.org/1999/xlink" viewBox="0 0 1440 120" shape-rendering="geometricPrecision" text-rendering="geometricPrecision"><path d="M0,71.868721L48,86.211892c48,14.343171,144,43.029513,240,50.201099s192-7.171586,288-11.967583c96-4.616708,192-.134467,288-11.922761c96-11.967583,192-40.653925,288-52.621509c96-11.788294,192-7.306053,240-4.751175l48,2.375588v114.745369h-48c-48,0-144,0-240,0s-192,0-288,0-192,0-288,0-192,0-288,0-192,0-240,0h-48L0,71.868721Z" transform="matrix(1 0 0-1 0 172.270918)" fill="#acd4b4"/></svg>
