<svg id="e1jlQxYgLA81" xmlns="http://www.w3.org/2000/svg" xmlns:xlink="http://www.w3.org/1999/xlink" viewBox="0 0 1440 120" shape-rendering="geometricPrecision" text-rendering="geometricPrecision"><path d="M0,70.988065l48,47.36235c48,46.918674,144,142.308887,240,153.733529c96,11.868317,192-59.119748,288-100.49248c96-41.816407,192-52.908292,288-29.615333s192,83.189139,288,118.350415c96,35.826789,192,46.918674,240,53.241049l48,5.878699L1440,0h-48c-48,0-144,0-240,0s-192,0-288,0-192,0-288,0-192,0-288,0-192,0-240,0L0,0v70.988065Z" transform="matrix(1 0 0 0.37565 0 0)" fill="#acd4b4"/></svg>
